<svg width="20" height="15" viewBox="0 0 20 15" fill="none" xmlns="http://www.w3.org/2000/svg">
<path d="M13.987 2.15263L14.533 2.03563C14.819 2.03563 15.092 2.15263 15.352 2.38663C15.612 2.62063 15.742 2.80263 15.742 2.93263C15.742 3.06263 14.936 4.32363 13.324 6.71563C11.712 9.08163 10.906 10.7326 10.906 11.6686C10.906 11.7466 10.919 11.8246 10.945 11.9026C11.075 12.5006 11.361 12.7996 11.803 12.7996C13.155 12.7996 15.625 10.5636 19.213 6.09163C19.291 5.98763 19.382 5.93563 19.486 5.93563C19.59 5.93563 19.642 6.03963 19.642 6.24763C19.642 6.42963 19.525 6.67663 19.291 6.98863C15.963 11.4346 13.428 13.6576 11.686 13.6576C11.452 13.6576 11.231 13.6186 11.023 13.5406C9.879 13.0986 9.307 12.2406 9.307 10.9666C9.307 10.5246 9.359 10.0826 9.463 9.64063L7.045 11.9806C5.511 13.3326 4.393 14.0086 3.691 14.0086C3.015 14.0086 2.365 13.7876 1.741 13.3456C1.039 12.8256 0.688 12.1366 0.688 11.2786C0.688 9.38063 2.014 7.11863 4.666 4.49263C7.318 1.84063 9.749 0.514628 11.959 0.514628C12.817 0.514628 13.389 0.813628 13.675 1.41163C13.753 1.61963 13.818 1.80163 13.87 1.95763C13.922 2.08763 13.961 2.15263 13.987 2.15263ZM2.326 11.7466C2.326 12.6826 2.651 13.1506 3.301 13.1506C4.809 13.1506 6.863 11.4996 9.463 8.19763L13.597 2.50363C13.389 2.13963 13.051 1.95763 12.583 1.95763C10.997 1.95763 8.891 3.19263 6.265 5.66263C3.639 8.10663 2.326 10.1346 2.326 11.7466Z" fill="black"/>
</svg>
