<svg width="17" height="19" viewBox="0 0 17 19" fill="none" xmlns="http://www.w3.org/2000/svg">
<path d="M9.892 9.10263C9.892 7.33463 10.438 6.45063 11.53 6.45063C11.634 6.45063 11.751 6.46363 11.881 6.48963C12.323 6.56763 12.544 6.90563 12.544 7.50363C12.544 8.10163 12.44 8.85563 12.232 9.76563C12.024 10.4416 11.881 10.9486 11.803 11.2866C11.881 11.7286 12.089 12.3006 12.427 13.0026C12.791 13.6786 13.272 14.0166 13.87 14.0166C14.494 14.0166 15.183 13.6006 15.937 12.7686C16.093 12.5866 16.236 12.4956 16.366 12.4956C16.522 12.4956 16.6 12.5866 16.6 12.7686C16.626 12.9246 16.535 13.1456 16.327 13.4316C15.521 14.3936 14.676 14.8746 13.792 14.8746C12.518 14.8746 11.491 13.9386 10.711 12.0666C9.905 13.9126 8.761 15.5116 7.279 16.8636C5.797 18.1896 4.328 18.8526 2.872 18.8526C1.494 18.8526 0.805 17.8126 0.805 15.7326C0.805 14.0946 2.326 11.0786 5.368 6.68463C8.436 2.29063 10.776 0.0936284 12.388 0.0936284C12.726 0.0936284 13.025 0.197628 13.285 0.405628C13.571 0.613628 13.714 0.860629 13.714 1.14663C13.714 1.12063 13.519 1.31563 13.129 1.73163C12.765 2.14763 11.738 3.26563 10.048 5.08563C8.384 6.90563 6.746 8.90763 5.134 11.0916C3.522 13.2756 2.716 14.9656 2.716 16.1616C2.716 16.4736 2.794 16.8116 2.95 17.1756C3.132 17.5396 3.418 17.7216 3.808 17.7216C4.952 17.7216 6.291 16.8376 7.825 15.0696C9.099 13.5096 9.879 12.1966 10.165 11.1306C9.983 10.5846 9.892 9.90863 9.892 9.10263Z" fill="black"/>
</svg>
