<svg width="31" height="29" viewBox="0 0 31 29" fill="none" xmlns="http://www.w3.org/2000/svg">
<path d="M20.099 14.9716C18.539 14.9716 17.226 14.6206 16.16 13.9186C15.094 13.1906 14.561 12.2806 14.561 11.1886C14.561 9.81063 15.458 8.43263 17.252 7.05463C17.564 6.82063 17.798 6.70363 17.954 6.70363C18.11 6.70363 18.188 6.75563 18.188 6.85963C18.188 7.11963 17.98 7.32763 17.564 7.48363C16.108 8.65363 15.38 9.83663 15.38 11.0326C15.38 11.8906 15.77 12.6186 16.55 13.2166C17.33 13.7886 18.305 14.0746 19.475 14.0746C22.023 14.0746 24.428 12.8526 26.69 10.4086C27.86 9.13463 28.445 7.66563 28.445 6.00163C28.445 4.33763 27.821 3.10263 26.573 2.29663C25.533 1.56863 24.129 1.20463 22.361 1.20463C19.813 1.20463 17.252 1.84163 14.678 3.11563C11.506 4.64963 8.633 7.04163 6.059 10.2916C3.511 13.5156 2.237 16.6226 2.237 19.6126C2.237 21.9786 3.043 23.8116 4.655 25.1116C6.267 26.3856 8.269 27.0226 10.661 27.0226C13.391 27.0226 16.069 26.3596 18.695 25.0336C20.697 23.9936 22.426 22.6676 23.882 21.0556C24.298 20.5876 24.623 20.3536 24.857 20.3536C25.013 20.3536 25.091 20.4966 25.091 20.7826C25.091 21.0426 24.948 21.3156 24.662 21.6016C23.284 23.0576 21.295 24.4616 18.695 25.8136C15.497 27.5036 12.273 28.3486 9.023 28.3486C5.799 28.3486 3.394 27.2826 1.808 25.1506C0.742 23.7466 0.209 22.0696 0.209 20.1196C0.209 19.2616 0.313 18.3386 0.521 17.3506C1.223 14.0226 3.069 10.7856 6.059 7.63963C8.217 5.37763 10.778 3.62263 13.742 2.37463C16.706 1.10063 19.514 0.463628 22.166 0.463628C23.57 0.463628 24.792 0.632628 25.832 0.970628C28.666 1.85463 30.083 3.63563 30.083 6.31363C30.083 7.95163 29.602 9.36863 28.64 10.5646C26.248 13.5026 23.401 14.9716 20.099 14.9716Z" fill="black"/>
</svg>
