<svg width="15" height="14" viewBox="0 0 15 14" fill="none" xmlns="http://www.w3.org/2000/svg">
<path d="M3.989 13.3206C3.703 13.3206 3.443 13.2816 3.209 13.2036C1.545 12.7356 0.713 11.7996 0.713 10.3956C0.713 8.57563 1.857 6.46963 4.145 4.07763C6.433 1.68563 8.487 0.489629 10.307 0.489629C10.905 0.489629 11.386 0.658629 11.75 0.996629C12.14 1.30863 12.335 1.69863 12.335 2.16663C12.335 3.62263 11.23 5.01363 9.02 6.33963C6.836 7.66563 5.055 8.32863 3.677 8.32863C3.469 8.32863 3.287 8.30263 3.131 8.25063C2.741 8.95263 2.546 9.69363 2.546 10.4736C2.546 11.8256 3.183 12.5016 4.457 12.5016C5.757 12.5016 7.434 11.6306 9.488 9.88863C11.074 8.61463 12.426 7.26263 13.544 5.83263C13.778 5.52063 13.973 5.36463 14.129 5.36463C14.311 5.36463 14.402 5.44263 14.402 5.59863C14.402 5.75463 14.298 5.97563 14.09 6.26163C12.686 8.10763 10.996 9.74563 9.02 11.1756C7.044 12.6056 5.367 13.3206 3.989 13.3206ZM11.36 2.08863C11.36 1.77663 11.022 1.62063 10.346 1.62063C9.696 1.62063 8.76 2.12763 7.538 3.14163C5.9 4.49363 4.626 5.91063 3.716 7.39263C3.872 7.44463 4.041 7.47063 4.223 7.47063C5.211 7.47063 6.524 6.95063 8.162 5.91063C9.826 4.84463 10.866 3.68763 11.282 2.43963C11.334 2.30963 11.36 2.19263 11.36 2.08863Z" fill="black"/>
</svg>
