<svg width="20" height="21" viewBox="0 0 20 21" fill="none" xmlns="http://www.w3.org/2000/svg">
<path d="M12.243 19.6576C10.709 19.6576 9.942 18.7606 9.942 16.9666C9.942 15.9526 10.293 14.8346 10.995 13.6126C11.723 12.3646 12.607 10.9086 13.647 9.24463C10.319 10.9086 7.303 13.3656 4.599 16.6156C3.091 18.8776 2.207 20.0086 1.947 20.0086C1.193 20.0086 0.816 19.7876 0.816 19.3456C0.816 19.1116 0.972 18.6956 1.284 18.0976C3.806 13.5996 5.717 10.3106 7.017 8.23063C10.111 3.26463 12.295 0.573628 13.569 0.157629C13.621 0.131629 13.673 0.118629 13.725 0.118629C14.063 0.118629 14.297 0.391629 14.427 0.937628C14.349 1.48363 12.997 3.45963 10.371 6.86563C7.641 10.3236 6.094 12.5856 5.73 13.6516C6.692 12.9496 8.369 11.7666 10.761 10.1026C13.335 8.30863 15.038 7.41163 15.87 7.41163C16.702 7.41163 17.118 7.73663 17.118 8.38663C17.118 8.49063 17.105 8.56863 17.079 8.62063C17.079 8.64663 16.182 9.86863 14.388 12.2866C12.594 14.7046 11.697 16.4856 11.697 17.6296C11.697 18.2276 11.918 18.5266 12.36 18.5266C13.764 18.4746 15.87 16.7846 18.678 13.4566C18.912 13.2226 19.081 13.1056 19.185 13.1056C19.315 13.1056 19.38 13.1836 19.38 13.3396C19.38 13.8596 18.093 15.2636 15.519 17.5516C13.907 18.9556 12.815 19.6576 12.243 19.6576Z" fill="black"/>
</svg>
