<svg width="35" height="31" viewBox="0 0 35 31" fill="none" xmlns="http://www.w3.org/2000/svg">
<path d="M27.846 12.3696L27.573 11.3166C27.573 11.1086 27.677 11.0046 27.885 11.0046C27.963 11.0046 28.067 11.0436 28.197 11.1216C28.795 11.5636 29.094 12.1486 29.094 12.8766C29.094 13.6046 28.626 14.3196 27.69 15.0216C26.754 15.6976 25.571 16.0356 24.141 16.0356C23.699 16.0356 23.257 15.9966 22.815 15.9186C21.021 19.2206 18.837 22.2626 16.263 25.0446C12.831 28.6846 9.711 30.5046 6.903 30.5046C2.847 30.5046 0.819 28.1126 0.819 23.3286C0.819 19.3766 1.872 16.1916 3.978 13.7736C5.746 11.6936 7.774 10.6536 10.062 10.6536C10.66 10.6536 11.271 10.7576 11.895 10.9656C13.429 11.5636 14.196 12.8376 14.196 14.7876C14.196 16.7116 13.403 18.7266 11.817 20.8326C10.231 22.9386 8.606 23.9916 6.942 23.9916C5.07 23.9916 4.134 22.9776 4.134 20.9496C4.134 20.3776 4.251 19.7796 4.485 19.1556C4.745 18.5316 5.031 18.2196 5.343 18.2196C5.577 18.2196 5.694 18.3366 5.694 18.5706C5.694 18.7006 5.577 19.0256 5.343 19.5456C5.109 20.0656 4.992 20.5336 4.992 20.9496C4.992 21.3396 5.2 21.7166 5.616 22.0806C6.058 22.4186 6.513 22.5876 6.981 22.5876C8.515 22.5876 9.932 21.6516 11.232 19.7796C12.558 17.8816 13.221 16.0356 13.221 14.2416C13.221 12.8636 12.727 11.9536 11.739 11.5116C11.401 11.3816 11.05 11.3166 10.686 11.3166C8.84 11.3166 6.994 12.5906 5.148 15.1386C3.354 17.7126 2.457 20.5336 2.457 23.6016C2.457 25.2916 2.821 26.6696 3.549 27.7356C4.303 28.8276 5.343 29.3736 6.669 29.3736C10.101 29.3736 14.573 24.7066 20.085 15.3726C17.225 14.5146 15.795 12.8246 15.795 10.3026C15.795 6.94863 17.498 4.27063 20.904 2.26863C23.062 1.02063 25.155 0.396629 27.183 0.396629C28.769 0.396629 30.199 0.656629 31.473 1.17663C33.267 1.87863 34.164 2.94463 34.164 4.37463C34.164 4.68663 34.086 4.98563 33.93 5.27163C33.8 5.55763 33.657 5.70063 33.501 5.70063C33.163 5.36263 32.76 5.19363 32.292 5.19363C30.082 5.19363 27.053 8.48263 23.205 15.0606C23.413 15.0866 23.634 15.0996 23.868 15.0996C24.752 15.0996 25.636 14.8396 26.52 14.3196C27.404 13.7996 27.846 13.1496 27.846 12.3696ZM28.119 1.48863C26.793 1.48863 25.259 1.87863 23.517 2.65863C21.801 3.41263 20.423 4.53063 19.383 6.01263C18.369 7.49463 17.862 9.17163 17.862 11.0436C17.862 12.9156 18.824 14.0336 20.748 14.3976C22.178 12.0576 24.024 9.73063 26.286 7.41663C28.548 5.07663 30.433 3.90663 31.941 3.90663C32.331 3.90663 32.669 3.99763 32.955 4.17963C32.929 3.45163 32.422 2.81463 31.434 2.26863C30.55 1.74863 29.445 1.48863 28.119 1.48863Z" fill="black"/>
</svg>
