<svg width="12" height="18" viewBox="0 0 12 18" fill="none" xmlns="http://www.w3.org/2000/svg">
<path d="M9.463 0.901628C9.853 0.901628 10.217 1.03163 10.555 1.29163C10.919 1.52563 11.101 1.81163 11.101 2.14963C11.101 2.48763 10.932 2.78663 10.594 3.04663C10.282 3.28063 9.931 3.39763 9.541 3.39763C9.151 3.39763 8.787 3.25463 8.449 2.96863C8.137 2.68263 7.981 2.35763 7.981 1.99363C7.981 1.26563 8.475 0.901628 9.463 0.901628ZM2.404 17.2426C1.078 17.2426 0.415 16.3846 0.415 14.6686C0.415 13.2646 1.182 11.3276 2.716 8.85763C4.25 6.36163 5.485 5.10063 6.421 5.07463C6.681 5.07463 6.967 5.17863 7.279 5.38663C7.617 5.59463 7.786 5.80263 7.786 6.01063C7.656 6.19263 7.5 6.40063 7.318 6.63463C7.136 6.84263 6.941 7.07663 6.733 7.33663C6.525 7.59663 6.239 7.97363 5.875 8.46763C5.511 8.93563 5.16 9.39063 4.822 9.83263C2.872 12.3546 1.897 14.0966 1.897 15.0586C1.897 15.9946 2.222 16.4626 2.872 16.4626C3.418 16.4626 4.159 16.1636 5.095 15.5656C7.279 14.2136 9.008 12.7316 10.282 11.1196C10.75 10.5216 11.062 10.2226 11.218 10.2226C11.4 10.2226 11.491 10.3266 11.491 10.5346C11.491 10.7426 11.192 11.1586 10.594 11.7826C9.996 12.4066 9.515 12.9006 9.151 13.2646C8.813 13.6286 8.579 13.8756 8.449 14.0056C8.319 14.1096 8.072 14.3306 7.708 14.6686C7.37 14.9806 7.11 15.2016 6.928 15.3316C6.746 15.4616 6.486 15.6566 6.148 15.9166C5.81 16.1766 5.511 16.3716 5.251 16.5016C4.991 16.6056 4.692 16.7356 4.354 16.8916C3.808 17.1256 3.158 17.2426 2.404 17.2426Z" fill="black"/>
</svg>
