<svg width="440" height="305" viewBox="0 0 440 305" fill="none" xmlns="http://www.w3.org/2000/svg">
    <path d="M105.315 189.455L108.904 105.548L216.006 65.2337L319.514 108.826L315.925 192.733L208.824 233.047L105.315 189.455Z"
          stroke="black" stroke-width="4"/>
    <path d="M335.321 115.483L331.732 199.39L224.63 239.704L121.122 196.112L124.711 112.204L231.812 71.8904L335.321 115.483Z"
          stroke="black" stroke-width="4"/>
    <path d="M193.196 119.886V121.886H195.196V119.886H193.196ZM179.54 119.886V117.886H177.54V119.886H179.54ZM179.54 156.918V158.918H181.54V156.918H179.54ZM168.571 156.918H166.571V158.918H168.571V156.918ZM168.571 119.886H170.571V117.886H168.571V119.886ZM155.165 119.886H153.165V121.886H155.165V119.886ZM155.165 111.418V109.418H153.165V111.418H155.165ZM193.196 111.418H195.196V109.418H193.196V111.418ZM193.196 117.886H179.54V121.886H193.196V117.886ZM177.54 119.886V156.918H181.54V119.886H177.54ZM179.54 154.918H168.571V158.918H179.54V154.918ZM170.571 156.918V119.886H166.571V156.918H170.571ZM168.571 117.886H155.165V121.886H168.571V117.886ZM157.165 119.886V111.418H153.165V119.886H157.165ZM155.165 113.418H193.196V109.418H155.165V113.418ZM191.196 111.418V119.886H195.196V111.418H191.196Z"
          fill="black"/>
    <path d="M224.816 179.665V181.665H226.816V179.665H224.816ZM213.879 179.665H211.879V181.665H213.879V179.665ZM213.879 134.165V132.165H211.879V134.165H213.879ZM224.816 134.165H226.816V132.165H224.816V134.165ZM224.816 177.665H213.879V181.665H224.816V177.665ZM215.879 179.665V134.165H211.879V179.665H215.879ZM213.879 136.165H224.816V132.165H213.879V136.165ZM222.816 134.165V179.665H226.816V134.165H222.816Z"
          fill="black"/>
    <path d="M284.723 187.007L286.721 187.099L286.817 185.007H284.723V187.007ZM282.161 195.413L283.84 196.499L283.844 196.492L282.161 195.413ZM275.567 201.038L274.715 199.228L274.71 199.231L275.567 201.038ZM248.942 166.757L247.129 165.912L247.127 165.917L248.942 166.757ZM255.661 159.007L256.716 160.705L256.725 160.7L255.661 159.007ZM279.098 160.632L277.786 162.141L277.791 162.145L279.098 160.632ZM284.817 172.632V174.632H287.005L286.809 172.453L284.817 172.632ZM273.879 172.632L271.88 172.692L271.939 174.632H273.879V172.632ZM257.786 177.694L255.786 177.666L255.786 177.68V177.694H257.786ZM259.598 191.319L257.868 192.322L257.872 192.329L257.876 192.335L259.598 191.319ZM273.817 187.007V185.007H271.88L271.818 186.942L273.817 187.007ZM282.725 186.915C282.594 189.764 281.832 192.219 280.477 194.333L283.844 196.492C285.614 193.731 286.561 190.582 286.721 187.099L282.725 186.915ZM280.481 194.327C279.139 196.402 277.241 198.039 274.715 199.228L276.419 202.847C279.559 201.37 282.057 199.257 283.84 196.499L280.481 194.327ZM274.71 199.231C272.206 200.418 269.288 201.038 265.911 201.038V205.038C269.783 205.038 273.303 204.325 276.424 202.845L274.71 199.231ZM265.911 201.038C260.41 201.038 256.284 199.269 253.285 195.871L250.286 198.517C254.162 202.91 259.453 205.038 265.911 205.038V201.038ZM253.285 195.871C250.272 192.456 248.629 187.491 248.629 180.694H244.629C244.629 188.106 246.424 194.141 250.286 198.517L253.285 195.871ZM248.629 180.694V178.444H244.629V180.694H248.629ZM248.629 178.444C248.629 174.215 249.36 170.616 250.757 167.596L247.127 165.917C245.44 169.564 244.629 173.757 244.629 178.444H248.629ZM250.755 167.601C252.167 164.571 254.155 162.297 256.716 160.705L254.605 157.308C251.333 159.341 248.842 162.234 247.129 165.912L250.755 167.601ZM256.725 160.7C259.288 159.089 262.285 158.257 265.786 158.257V154.257C261.62 154.257 257.867 155.257 254.596 157.313L256.725 160.7ZM265.786 158.257C270.945 158.257 274.878 159.612 277.786 162.141L280.411 159.122C276.61 155.818 271.668 154.257 265.786 154.257V158.257ZM277.791 162.145C280.691 164.649 282.405 168.136 282.825 172.81L286.809 172.453C286.312 166.919 284.214 162.406 280.405 159.118L277.791 162.145ZM284.817 170.632H273.879V174.632H284.817V170.632ZM275.879 172.571C275.788 169.554 275.021 166.923 273.14 165.191L270.431 168.134C271.175 168.819 271.804 170.168 271.88 172.692L275.879 172.571ZM273.14 165.191C271.31 163.506 268.727 162.85 265.786 162.85V166.85C268.219 166.85 269.637 167.403 270.431 168.134L273.14 165.191ZM265.786 162.85C262.476 162.85 259.778 164.14 258.088 166.856L261.484 168.97C262.335 167.602 263.637 166.85 265.786 166.85V162.85ZM258.088 166.856C256.521 169.374 255.85 173.089 255.786 177.666L259.785 177.722C259.847 173.341 260.509 170.535 261.484 168.97L258.088 166.856ZM255.786 177.694V180.913H259.786V177.694H255.786ZM255.786 180.913C255.786 185.828 256.379 189.755 257.868 192.322L261.328 190.316C260.401 188.716 259.786 185.706 259.786 180.913H255.786ZM257.876 192.335C259.552 195.177 262.415 196.444 265.911 196.444V192.444C263.448 192.444 262.103 191.628 261.321 190.303L257.876 192.335ZM265.911 196.444C268.721 196.444 271.196 195.783 273.022 194.156L270.362 191.169C269.521 191.918 268.142 192.444 265.911 192.444V196.444ZM273.022 194.156C274.919 192.467 275.723 189.955 275.816 187.071L271.818 186.942C271.744 189.225 271.132 190.484 270.362 191.169L273.022 194.156ZM273.817 189.007H284.723V185.007H273.817V189.007Z"
          fill="black"/>
</svg>
