<svg width="29" height="14" viewBox="0 0 29 14" fill="none" xmlns="http://www.w3.org/2000/svg">
<path d="M20.642 13.3456C18.874 13.3456 17.99 12.5266 17.99 10.8886C17.99 9.95263 18.406 8.67863 19.238 7.06663C20.07 5.42863 20.941 4.05063 21.851 2.93263C20.239 3.71263 18.38 5.12963 16.274 7.18363C14.168 9.21163 12.699 11.3436 11.867 13.5796C11.737 13.7876 11.516 13.8916 11.204 13.8916C10.58 13.8916 10.268 13.5406 10.268 12.8386C10.528 11.4086 11.113 9.77063 12.023 7.92463C12.309 7.32663 13.154 5.58463 14.558 2.69863C12.53 4.02463 10.801 5.45463 9.371 6.98863C7.967 8.49663 6.654 10.0176 5.432 11.5516C4.236 13.0856 3.56 13.8526 3.404 13.8526C3.066 13.8526 2.767 13.6966 2.507 13.3846C2.273 13.0726 2.156 12.7606 2.156 12.4486C2.156 11.9806 2.832 10.2646 4.184 7.30063L1.844 9.75763C1.272 10.3296 0.921 10.6156 0.791 10.6156C0.635 10.6156 0.557 10.5376 0.557 10.3816C0.557 10.1996 0.661 10.0046 0.869 9.79663C1.831 8.83463 2.689 7.87263 3.443 6.91063C4.197 5.94863 5.445 4.23263 7.187 1.76263C7.473 1.37263 7.876 1.17763 8.396 1.17763C8.916 1.17763 9.176 1.42463 9.176 1.91863C9.176 2.10063 8.487 3.37463 7.109 5.74063C5.731 8.08063 4.964 9.54963 4.808 10.1476C5.874 8.97763 7.473 7.40463 9.605 5.42863C12.803 2.46463 14.909 0.982628 15.923 0.982628C16.235 0.982628 16.521 1.07363 16.781 1.25563C17.041 1.43763 17.171 1.64563 17.171 1.87963C17.171 2.08763 16.664 3.06263 15.65 4.80463C14.662 6.59863 14.116 7.66463 14.012 8.00263C16.898 5.58463 18.341 4.36263 18.341 4.33663C20.785 2.43863 22.54 1.48963 23.606 1.48963C23.918 1.48963 24.204 1.59363 24.464 1.80163C24.75 1.98363 24.893 2.20463 24.893 2.46463C24.893 2.51663 24.048 3.62163 22.358 5.77963C20.668 7.91163 19.719 9.66663 19.511 11.0446C19.459 11.5126 19.55 11.8636 19.784 12.0976C20.018 12.3316 20.434 12.4486 21.032 12.4486C21.656 12.4486 22.553 12.0326 23.723 11.2006C24.919 10.3426 26.128 9.19863 27.35 7.76863C27.818 7.24863 28.13 6.98863 28.286 6.98863C28.468 6.98863 28.559 7.05363 28.559 7.18363C28.559 7.36563 28.442 7.57363 28.208 7.80763C26.934 9.34163 25.556 10.6546 24.074 11.7466C22.618 12.8126 21.474 13.3456 20.642 13.3456Z" fill="black"/>
</svg>
