<svg width="20" height="13" viewBox="0 0 20 13" fill="none" xmlns="http://www.w3.org/2000/svg">
<path d="M8.279 0.489629C8.981 0.489629 9.332 0.762629 9.332 1.30863C9.332 1.46463 9.293 1.62063 9.215 1.77663C6.875 5.02663 5.471 7.48363 5.003 9.14763C11.061 3.08963 14.74 0.0606283 16.04 0.0606283C16.17 0.0346286 16.287 0.0216288 16.391 0.0216288C17.119 0.0216288 17.483 0.346629 17.483 0.996629C17.483 1.12663 17.457 1.25663 17.405 1.38663C17.353 1.51663 16.833 2.21863 15.845 3.49263C14.701 4.84463 13.726 6.14463 12.92 7.39263C12.14 8.64063 11.75 9.68063 11.75 10.5126C11.75 11.3446 11.932 11.7606 12.296 11.7606C13.44 11.7606 15.429 10.1876 18.263 7.04163C18.315 6.98963 18.406 6.87263 18.536 6.69063C18.926 6.22263 19.16 5.98863 19.238 5.98863C19.316 5.98863 19.355 6.11863 19.355 6.37863C19.355 6.63863 19.173 6.97663 18.809 7.39263C15.585 11.0586 13.297 12.8916 11.945 12.8916C10.671 12.8916 10.034 12.1896 10.034 10.7856C10.034 9.38163 10.554 7.76963 11.594 5.94963L14.09 1.89363C12.322 3.19363 10.749 4.62363 9.371 6.18363C7.993 7.71763 6.732 9.21263 5.588 10.6686C4.47 12.1246 3.82 12.8526 3.638 12.8526C3.248 12.8526 2.936 12.6966 2.702 12.3846C2.494 12.0466 2.39 11.6436 2.39 11.1756C2.39 10.6816 2.559 10.0316 2.897 9.22563C3.235 8.41963 3.664 7.44463 4.184 6.30063L1.844 8.75763C1.272 9.32963 0.921 9.61563 0.791 9.61563C0.635 9.61563 0.557 9.53763 0.557 9.38163C0.557 9.19963 0.661 9.00463 0.869 8.79663C1.831 7.83463 2.663 6.91163 3.365 6.02763C4.041 5.14363 5.432 3.45363 7.538 0.957628C7.772 0.645629 8.019 0.489629 8.279 0.489629Z" fill="black"/>
</svg>
