<svg width="15" height="14" viewBox="0 0 15 14" fill="none" xmlns="http://www.w3.org/2000/svg">
<path d="M11.179 5.54563C11.179 6.45563 10.308 7.97663 8.566 10.1086C6.512 12.6306 4.757 13.8916 3.301 13.8916H2.677C2.001 13.8916 1.468 13.5406 1.078 12.8386C0.766 12.3446 0.61 11.7986 0.61 11.2006C0.61 9.64063 1.741 7.45663 4.003 4.64863C6.291 1.81463 8.137 0.397629 9.541 0.397629C10.867 0.397629 11.53 1.09963 11.53 2.50363C11.53 2.86763 11.465 3.33563 11.335 3.90763C11.361 3.98563 11.608 4.02463 12.076 4.02463C12.544 4.02463 13.259 3.77763 14.221 3.28363C14.195 3.72563 13.168 4.36263 11.14 5.19463C11.166 5.29863 11.179 5.41563 11.179 5.54563ZM8.644 3.51763C7.76 3.51763 6.499 4.55763 4.861 6.63763C3.249 8.71763 2.443 10.2516 2.443 11.2396C2.443 12.2276 2.755 12.7216 3.379 12.7216C4.497 12.7216 5.914 11.7076 7.63 9.67963C9.346 7.65163 10.204 6.19563 10.204 5.31163C9.788 5.07763 9.268 4.47963 8.644 3.51763Z" fill="black"/>
</svg>
