<svg width="18" height="17" viewBox="0 0 18 17" fill="none" xmlns="http://www.w3.org/2000/svg">
<path d="M8.956 16.0086C7.006 16.0086 6.031 14.9296 6.031 12.7716C6.031 11.6796 6.317 10.4836 6.889 9.18363C7.461 7.88363 8.085 6.79163 8.761 5.90763C8.631 5.93363 8.462 5.94663 8.254 5.94663C7.63 5.94663 7.11 5.50463 6.694 4.62063L3.808 8.36463C2.196 10.3666 1.26 11.3676 1 11.3676C0.87 11.3676 0.805 11.3156 0.805 11.2116C0.805 10.9516 1.026 10.5746 1.468 10.0806C3.73 7.45463 5.329 5.23163 6.265 3.41163C6.863 1.14963 7.617 0.0186279 8.527 0.0186279C9.125 0.0186279 9.424 0.278628 9.424 0.798628C9.424 1.31863 9.099 1.98163 8.449 2.78763L7.513 4.03563C7.513 4.58163 7.916 4.85463 8.722 4.85463C9.19 4.85463 9.71 4.68563 10.282 4.34763L11.296 3.72363C11.348 3.69763 11.478 3.68463 11.686 3.68463C11.894 3.68463 12.115 3.81463 12.349 4.07463C12.583 4.33463 12.661 4.56863 12.583 4.77663L9.892 8.16963C8.228 10.3016 7.396 11.9916 7.396 13.2396C7.396 14.4616 7.968 15.0726 9.112 15.0726C10.308 15.0726 11.777 14.4356 13.519 13.1616C14.559 12.4076 15.508 11.5626 16.366 10.6266C17.172 9.69063 17.614 9.22263 17.692 9.22263C17.874 9.22263 17.965 9.32663 17.965 9.53463C17.965 9.71663 17.848 9.93763 17.614 10.1976L16.366 11.6016C15.664 12.3296 14.884 13.0316 14.026 13.7076C11.972 15.2416 10.282 16.0086 8.956 16.0086Z" fill="black"/>
</svg>
