<svg width="18" height="16" viewBox="0 0 18 16" fill="none" xmlns="http://www.w3.org/2000/svg">
<path d="M8.176 15.2286C7.422 15.6706 6.486 15.8916 5.368 15.8916C4.276 15.8916 3.431 15.5276 2.833 14.7996C2.261 14.0716 1.767 12.9146 1.351 11.3286C0.883 11.7966 0.558 12.0306 0.376 12.0306C0.246 12.0306 0.181 11.9396 0.181 11.7576C0.181 11.5756 0.246 11.4196 0.376 11.2896C1.234 10.2236 2.69 8.68963 4.744 6.68763L9.658 2.08563C11.062 0.759628 11.894 0.0966281 12.154 0.0966281C12.986 0.0966281 13.402 0.408628 13.402 1.03263C13.402 1.34463 13.272 1.65663 13.012 1.96863C12.778 2.25463 12.596 2.48863 12.466 2.67063C12.362 2.82663 12.245 2.98263 12.115 3.13863C11.647 3.94463 11.166 5.60863 10.672 8.13063C10.204 10.6526 9.84 12.4076 9.58 13.3956C11.738 13.3696 13.961 11.9656 16.249 9.18363C16.509 8.92363 16.704 8.79363 16.834 8.79363C16.964 8.79363 17.029 8.88463 17.029 9.06663C17.029 9.22263 16.912 9.44363 16.678 9.72963C15.17 11.4976 13.766 12.7326 12.466 13.4346C11.686 13.8246 10.672 14.1496 9.424 14.4096L8.176 15.2286ZM2.911 10.8996C2.911 11.7836 3.197 12.5116 3.769 13.0836C4.367 13.6296 5.03 13.9026 5.758 13.9026C6.486 13.9026 7.045 13.7596 7.435 13.4736C7.955 13.1876 8.462 11.9916 8.956 9.88563C9.476 7.77963 9.788 5.92063 9.892 4.30863L10.048 2.98263C8.618 4.04863 7.084 5.42663 5.446 7.11663C3.834 8.80663 3.002 9.92463 2.95 10.4706C2.924 10.6266 2.911 10.7696 2.911 10.8996Z" fill="black"/>
</svg>
