<svg width="43" height="33" viewBox="0 0 43 33" fill="none" xmlns="http://www.w3.org/2000/svg">
<path d="M1.092 26.2006C1.092 23.3926 1.924 20.6106 3.588 17.8546C1.664 16.6326 0.702 14.8256 0.702 12.4336C0.702 9.54763 1.976 6.98663 4.524 4.75063C7.384 2.22863 11.076 0.967627 15.6 0.967627C17.68 0.967627 19.916 1.26663 22.308 1.86463C22.854 1.99463 25.181 3.00863 29.289 4.90663C33.397 6.77863 36.348 7.71463 38.142 7.71463C39.338 7.71463 40.235 7.37663 40.833 6.70063C41.145 6.36263 41.301 5.99863 41.301 5.60863C41.301 5.21863 41.132 4.86763 40.794 4.55563C40.612 4.29563 40.521 4.12663 40.521 4.04863C40.521 3.97063 40.586 3.93163 40.716 3.93163C40.872 3.93163 41.119 4.16563 41.457 4.63363C41.821 5.07563 42.003 5.60863 42.003 6.23263C42.003 6.83063 41.587 7.41563 40.755 7.98763C39.949 8.53363 38.922 8.80663 37.674 8.80663C35.724 8.80663 32.695 7.87063 28.587 5.99863C24.479 4.10063 21.892 3.04763 20.826 2.83963C19.786 2.63163 18.59 2.52763 17.238 2.52763C11.856 2.52763 7.618 4.26963 4.524 7.75363C4.16 8.14363 3.731 8.93663 3.237 10.1326C2.743 11.3026 2.496 12.4336 2.496 13.5256C2.496 15.0336 3.029 16.2036 4.095 17.0356C5.447 15.0596 7.046 13.4866 8.892 12.3166C10.738 11.1466 12.61 10.5616 14.508 10.5616C16.848 10.5616 18.018 11.4716 18.018 13.2916C18.018 15.4756 16.731 17.8546 14.157 20.4286C11.609 22.9766 9.243 24.2506 7.059 24.2506C5.655 24.2506 4.953 23.6526 4.953 22.4566C4.953 22.0406 5.057 21.6766 5.265 21.3646C5.499 21.0526 5.772 20.9356 6.084 21.0136L6.006 21.9106C6.006 22.3006 6.604 22.4956 7.8 22.4956C9.568 22.4956 11.427 21.5856 13.377 19.7656C15.353 17.9456 16.549 16.1646 16.965 14.4226C17.069 14.0326 17.121 13.6816 17.121 13.3696C17.121 12.1996 16.367 11.6146 14.859 11.6146C13.377 11.6146 11.83 12.1866 10.218 13.3306C8.632 14.4746 7.137 15.9826 5.733 17.8546C5.837 17.9066 6.24 18.0106 6.942 18.1666L9.282 18.2446C10.426 18.2966 10.998 18.4266 10.998 18.6346C10.998 18.9986 10.452 19.1806 9.36 19.1806C9.282 19.1806 9.204 19.1806 9.126 19.1806C7.54 19.1806 6.24 18.9856 5.226 18.5956C3.224 21.6636 2.223 24.4846 2.223 27.0586C2.223 30.3866 3.51 32.0506 6.084 32.0506C8.996 32.0506 12.025 30.0226 15.171 25.9666L22.815 14.5786C25.675 10.4186 28.158 8.28663 30.264 8.18263L31.746 8.53363C32.214 8.79363 32.448 9.18363 32.448 9.70363C32.448 10.2236 32.318 10.4836 32.058 10.4836L30.81 10.2886C29.016 10.2886 26.715 12.2256 23.907 16.0996L16.146 26.9416C12.818 30.8156 9.633 32.7526 6.591 32.7526C4.511 32.7526 3.068 32.1936 2.262 31.0756C1.482 29.9576 1.092 28.3326 1.092 26.2006Z" fill="black"/>
</svg>
