<svg width="559" height="543" viewBox="0 0 559 543" fill="none" xmlns="http://www.w3.org/2000/svg">
    <path class = "backgroundHexagon" d="M111.681 292.183L156.377 125.377L323.183 80.6811L445.294 202.792L400.598 369.598L233.792 414.294L111.681 292.183Z"
          stroke="black" stroke-width="4"/>
    <path class = "Hexagon" d="M463.781 221.279L419.085 388.085L252.279 432.781L130.168 310.67L174.864 143.864L341.67 99.1684L463.781 221.279Z"
          stroke="black" stroke-width="4"/>
    <path class = "T" d="M255.964 175.161V178.161H258.964V175.161H255.964ZM229.292 175.161V172.161H226.292V175.161H229.292ZM229.292 247.487V250.487H232.292V247.487H229.292ZM207.869 247.487H204.869V250.487H207.869V247.487ZM207.869 175.161H210.869V172.161H207.869V175.161ZM181.685 175.161H178.685V178.161H181.685V175.161ZM181.685 158.62V155.62H178.685V158.62H181.685ZM255.964 158.62H258.964V155.62H255.964V158.62ZM255.964 172.161H229.292V178.161H255.964V172.161ZM226.292 175.161V247.487H232.292V175.161H226.292ZM229.292 244.487H207.869V250.487H229.292V244.487ZM210.869 247.487V175.161H204.869V247.487H210.869ZM207.869 172.161H181.685V178.161H207.869V172.161ZM184.685 175.161V158.62H178.685V175.161H184.685ZM181.685 161.62H255.964V155.62H181.685V161.62ZM252.964 158.62V175.161H258.964V158.62H252.964Z"
          fill="black"/>
    <path class = "I" d="M288.028 308.487V311.487H291.028V308.487H288.028ZM266.666 308.487H263.666V311.487H266.666V308.487ZM266.666 219.62V216.62H263.666V219.62H266.666ZM288.028 219.62H291.028V216.62H288.028V219.62ZM288.028 305.487H266.666V311.487H288.028V305.487ZM269.666 308.487V219.62H263.666V308.487H269.666ZM266.666 222.62H288.028V216.62H266.666V222.62ZM285.028 219.62V308.487H291.028V219.62H285.028Z"
          fill="black"/>
    <path class = "C" d="M389.101 333.397L392.097 333.535L392.242 330.397H389.101V333.397ZM384.096 349.815L386.615 351.444L386.621 351.434L384.096 349.815ZM371.217 360.802L369.94 358.087L369.932 358.091L371.217 360.802ZM319.215 293.846L316.496 292.579L316.493 292.587L319.215 293.846ZM332.338 278.71L333.921 281.258L333.928 281.254L333.934 281.249L332.338 278.71ZM378.114 281.883L376.146 284.147L376.154 284.154L378.114 281.883ZM389.284 305.321V308.321H392.565L392.272 305.053L389.284 305.321ZM367.921 305.321L364.923 305.411L365.01 308.321H367.921V305.321ZM336.488 315.209L333.489 315.167L333.488 315.188V315.209H336.488ZM340.028 341.82L337.433 343.325L337.439 343.335L337.445 343.344L340.028 341.82ZM367.799 333.397V330.397H364.895L364.801 333.3L367.799 333.397ZM386.104 333.259C385.841 338.969 384.311 343.921 381.57 348.196L386.621 351.434C389.984 346.189 391.791 340.195 392.097 333.535L386.104 333.259ZM381.576 348.187C378.856 352.395 375.013 355.7 369.94 358.087L372.495 363.516C378.489 360.695 383.232 356.676 386.615 351.444L381.576 348.187ZM369.932 358.091C364.902 360.476 359.066 361.708 352.357 361.708V367.708C359.809 367.708 366.547 366.336 372.502 363.513L369.932 358.091ZM352.357 361.708C341.397 361.708 333.075 358.173 327.019 351.31L322.52 355.279C329.892 363.634 339.962 367.708 352.357 367.708V361.708ZM327.019 351.31C320.942 344.422 317.699 334.482 317.699 321.068H311.699C311.699 335.404 315.17 346.949 322.52 355.279L327.019 351.31ZM317.699 321.068V316.673H311.699V321.068H317.699ZM317.699 316.673C317.699 308.309 319.145 301.146 321.938 295.106L316.493 292.587C313.264 299.567 311.699 307.622 311.699 316.673H317.699ZM321.935 295.113C324.76 289.048 328.759 284.466 333.921 281.258L330.755 276.161C324.524 280.033 319.774 285.543 316.496 292.579L321.935 295.113ZM333.934 281.249C339.1 278.002 345.126 276.338 352.113 276.338V270.338C344.127 270.338 336.969 272.255 330.741 276.17L333.934 281.249ZM352.113 276.338C362.354 276.338 370.264 279.032 376.146 284.147L380.083 279.62C372.863 273.341 363.438 270.338 352.113 270.338V276.338ZM376.154 284.154C382.023 289.221 385.458 296.265 386.296 305.589L392.272 305.053C391.319 294.439 387.308 285.857 380.075 279.613L376.154 284.154ZM389.284 302.321H367.921V308.321H389.284V302.321ZM370.92 305.231C370.746 299.449 369.28 294.601 365.864 291.456L361.8 295.87C363.511 297.445 364.771 300.369 364.923 305.411L370.92 305.231ZM365.864 291.456C362.523 288.381 357.744 287.123 352.113 287.123V293.123C356.981 293.123 360.014 294.226 361.8 295.87L365.864 291.456ZM352.113 287.123C345.912 287.123 340.96 289.52 337.848 294.519L342.942 297.69C344.794 294.714 347.654 293.123 352.113 293.123V287.123ZM337.848 294.519C334.921 299.221 333.613 306.271 333.489 315.167L339.488 315.25C339.608 306.649 340.904 300.964 342.942 297.69L337.848 294.519ZM333.488 315.209V321.495H339.488V315.209H333.488ZM333.488 321.495C333.488 331.068 334.652 338.53 337.433 343.325L342.623 340.315C340.685 336.972 339.488 330.884 339.488 321.495H333.488ZM337.445 343.344C340.516 348.55 345.764 350.923 352.357 350.923V344.923C347.314 344.923 344.342 343.227 342.612 340.295L337.445 343.344ZM352.357 350.923C357.715 350.923 362.301 349.662 365.644 346.685L361.654 342.204C359.789 343.865 356.847 344.923 352.357 344.923V350.923ZM365.644 346.685C369.094 343.613 370.621 338.99 370.798 333.494L364.801 333.3C364.653 337.896 363.413 340.638 361.654 342.204L365.644 346.685ZM367.799 336.397H389.101V330.397H367.799V336.397Z"
          fill="black"/>
    <path class = "Fullname" d="M1.96 508.31C1.96 503.27 3.45333 498.277 6.44 493.33C2.98667 491.137 1.26 487.893 1.26 483.6C1.26 478.42 3.54667 473.823 8.12 469.81C13.2533 465.283 19.88 463.02 28 463.02C31.7333 463.02 35.7467 463.557 40.04 464.63C41.02 464.863 45.1967 466.683 52.57 470.09C59.9433 473.45 65.24 475.13 68.46 475.13C70.6067 475.13 72.2167 474.523 73.29 473.31C73.85 472.703 74.13 472.05 74.13 471.35C74.13 470.65 73.8267 470.02 73.22 469.46C72.8933 468.993 72.73 468.69 72.73 468.55C72.73 468.41 72.8467 468.34 73.08 468.34C73.36 468.34 73.8033 468.76 74.41 469.6C75.0633 470.393 75.39 471.35 75.39 472.47C75.39 473.543 74.6433 474.593 73.15 475.62C71.7033 476.6 69.86 477.09 67.62 477.09C64.12 477.09 58.6833 475.41 51.31 472.05C43.9367 468.643 39.2933 466.753 37.38 466.38C35.5133 466.007 33.3667 465.82 30.94 465.82C21.28 465.82 13.6733 468.947 8.12 475.2C7.46667 475.9 6.69667 477.323 5.81 479.47C4.92333 481.57 4.48 483.6 4.48 485.56C4.48 488.267 5.43667 490.367 7.35 491.86C9.77667 488.313 12.6467 485.49 15.96 483.39C19.2733 481.29 22.6333 480.24 26.04 480.24C30.24 480.24 32.34 481.873 32.34 485.14C32.34 489.06 30.03 493.33 25.41 497.95C20.8367 502.523 16.59 504.81 12.67 504.81C10.15 504.81 8.89 503.737 8.89 501.59C8.89 500.843 9.07667 500.19 9.45 499.63C9.87 499.07 10.36 498.86 10.92 499L10.78 500.61C10.78 501.31 11.8533 501.66 14 501.66C17.1733 501.66 20.51 500.027 24.01 496.76C27.5567 493.493 29.7033 490.297 30.45 487.17C30.6367 486.47 30.73 485.84 30.73 485.28C30.73 483.18 29.3767 482.13 26.67 482.13C24.01 482.13 21.2333 483.157 18.34 485.21C15.4933 487.263 12.81 489.97 10.29 493.33C10.4767 493.423 11.2 493.61 12.46 493.89L16.66 494.03C18.7133 494.123 19.74 494.357 19.74 494.73C19.74 495.383 18.76 495.71 16.8 495.71C16.66 495.71 16.52 495.71 16.38 495.71C13.5333 495.71 11.2 495.36 9.38 494.66C5.78667 500.167 3.99 505.23 3.99 509.85C3.99 515.823 6.3 518.81 10.92 518.81C16.1467 518.81 21.5833 515.17 27.23 507.89L40.95 487.45C46.0833 479.983 50.54 476.157 54.32 475.97L56.98 476.6C57.82 477.067 58.24 477.767 58.24 478.7C58.24 479.633 58.0067 480.1 57.54 480.1L55.3 479.75C52.08 479.75 47.95 483.227 42.91 490.18L28.98 509.64C23.0067 516.593 17.29 520.07 11.83 520.07C8.09667 520.07 5.50667 519.067 4.06 517.06C2.66 515.053 1.96 512.137 1.96 508.31ZM62.8693 512.72C60.116 512.72 58.7393 511.11 58.7393 507.89C58.7393 506.07 59.3693 504.063 60.6293 501.87C61.936 499.63 63.5226 497.017 65.3893 494.03C59.416 497.017 54.0026 501.427 49.1493 507.26C46.4426 511.32 44.856 513.35 44.3893 513.35C43.036 513.35 42.3593 512.953 42.3593 512.16C42.3593 511.74 42.6393 510.993 43.1993 509.92C47.726 501.847 51.156 495.943 53.4893 492.21C59.0426 483.297 62.9626 478.467 65.2493 477.72C65.3426 477.673 65.436 477.65 65.5293 477.65C66.136 477.65 66.556 478.14 66.7893 479.12C66.6493 480.1 64.2226 483.647 59.5093 489.76C54.6093 495.967 51.8326 500.027 51.1793 501.94C52.906 500.68 55.916 498.557 60.2093 495.57C64.8293 492.35 67.886 490.74 69.3793 490.74C70.8726 490.74 71.6193 491.323 71.6193 492.49C71.6193 492.677 71.596 492.817 71.5493 492.91C71.5493 492.957 69.9393 495.15 66.7193 499.49C63.4993 503.83 61.8893 507.027 61.8893 509.08C61.8893 510.153 62.286 510.69 63.0793 510.69C65.5993 510.597 69.3793 507.563 74.4193 501.59C74.8393 501.17 75.1426 500.96 75.3293 500.96C75.5626 500.96 75.6793 501.1 75.6793 501.38C75.6793 502.313 73.3693 504.833 68.7493 508.94C65.856 511.46 63.896 512.72 62.8693 512.72ZM87.7877 484.44C88.4877 484.44 89.141 484.673 89.7477 485.14C90.401 485.56 90.7277 486.073 90.7277 486.68C90.7277 487.287 90.4243 487.823 89.8177 488.29C89.2577 488.71 88.6277 488.92 87.9277 488.92C87.2277 488.92 86.5743 488.663 85.9677 488.15C85.4077 487.637 85.1277 487.053 85.1277 486.4C85.1277 485.093 86.0143 484.44 87.7877 484.44ZM75.1177 513.77C72.7377 513.77 71.5477 512.23 71.5477 509.15C71.5477 506.63 72.9243 503.153 75.6777 498.72C78.431 494.24 80.6477 491.977 82.3277 491.93C82.7943 491.93 83.3077 492.117 83.8677 492.49C84.4743 492.863 84.7777 493.237 84.7777 493.61C84.5443 493.937 84.2643 494.31 83.9377 494.73C83.611 495.103 83.261 495.523 82.8877 495.99C82.5143 496.457 82.001 497.133 81.3477 498.02C80.6943 498.86 80.0643 499.677 79.4577 500.47C75.9577 504.997 74.2077 508.123 74.2077 509.85C74.2077 511.53 74.791 512.37 75.9577 512.37C76.9377 512.37 78.2677 511.833 79.9477 510.76C83.8677 508.333 86.971 505.673 89.2577 502.78C90.0977 501.707 90.6577 501.17 90.9377 501.17C91.2643 501.17 91.4277 501.357 91.4277 501.73C91.4277 502.103 90.891 502.85 89.8177 503.97C88.7443 505.09 87.881 505.977 87.2277 506.63C86.621 507.283 86.201 507.727 85.9677 507.96C85.7343 508.147 85.291 508.543 84.6377 509.15C84.031 509.71 83.5643 510.107 83.2377 510.34C82.911 510.573 82.4443 510.923 81.8377 511.39C81.231 511.857 80.6943 512.207 80.2277 512.44C79.761 512.627 79.2243 512.86 78.6177 513.14C77.6377 513.56 76.471 513.77 75.1177 513.77ZM91.9587 513.91C91.4453 513.91 90.9787 513.84 90.5587 513.7C87.572 512.86 86.0787 511.18 86.0787 508.66C86.0787 505.393 88.132 501.613 92.2387 497.32C96.3453 493.027 100.032 490.88 103.299 490.88C104.372 490.88 105.235 491.183 105.889 491.79C106.589 492.35 106.939 493.05 106.939 493.89C106.939 496.503 104.955 499 100.989 501.38C97.0687 503.76 93.872 504.95 91.3987 504.95C91.0253 504.95 90.6987 504.903 90.4187 504.81C89.7187 506.07 89.3687 507.4 89.3687 508.8C89.3687 511.227 90.512 512.44 92.7987 512.44C95.132 512.44 98.142 510.877 101.829 507.75C104.675 505.463 107.102 503.037 109.109 500.47C109.529 499.91 109.879 499.63 110.159 499.63C110.485 499.63 110.649 499.77 110.649 500.05C110.649 500.33 110.462 500.727 110.089 501.24C107.569 504.553 104.535 507.493 100.989 510.06C97.442 512.627 94.432 513.91 91.9587 513.91ZM105.189 493.75C105.189 493.19 104.582 492.91 103.369 492.91C102.202 492.91 100.522 493.82 98.3287 495.64C95.3887 498.067 93.102 500.61 91.4687 503.27C91.7487 503.363 92.052 503.41 92.3787 503.41C94.152 503.41 96.5087 502.477 99.4487 500.61C102.435 498.697 104.302 496.62 105.049 494.38C105.142 494.147 105.189 493.937 105.189 493.75ZM120.647 513.35C117.147 513.35 115.397 511.413 115.397 507.54C115.397 505.58 115.911 503.433 116.937 501.1C117.964 498.767 119.084 496.807 120.297 495.22C120.064 495.267 119.761 495.29 119.387 495.29C118.267 495.29 117.334 494.497 116.587 492.91L111.407 499.63C108.514 503.223 106.834 505.02 106.367 505.02C106.134 505.02 106.017 504.927 106.017 504.74C106.017 504.273 106.414 503.597 107.207 502.71C111.267 497.997 114.137 494.007 115.817 490.74C116.891 486.68 118.244 484.65 119.877 484.65C120.951 484.65 121.487 485.117 121.487 486.05C121.487 486.983 120.904 488.173 119.737 489.62L118.057 491.86C118.057 492.84 118.781 493.33 120.227 493.33C121.067 493.33 122.001 493.027 123.027 492.42L124.847 491.3C124.941 491.253 125.174 491.23 125.547 491.23C125.921 491.23 126.317 491.463 126.737 491.93C127.157 492.397 127.297 492.817 127.157 493.19L122.327 499.28C119.341 503.107 117.847 506.14 117.847 508.38C117.847 510.573 118.874 511.67 120.927 511.67C123.074 511.67 125.711 510.527 128.837 508.24C130.704 506.887 132.407 505.37 133.947 503.69C135.394 502.01 136.187 501.17 136.327 501.17C136.654 501.17 136.817 501.357 136.817 501.73C136.817 502.057 136.607 502.453 136.187 502.92L133.947 505.44C132.687 506.747 131.287 508.007 129.747 509.22C126.061 511.973 123.027 513.35 120.647 513.35ZM145.186 490.88C146.446 490.88 147.076 491.37 147.076 492.35C147.076 492.63 147.006 492.91 146.866 493.19C142.666 499.023 140.146 503.433 139.306 506.42C150.179 495.547 156.783 490.11 159.116 490.11C159.349 490.063 159.559 490.04 159.746 490.04C161.053 490.04 161.706 490.623 161.706 491.79C161.706 492.023 161.659 492.257 161.566 492.49C161.473 492.723 160.539 493.983 158.766 496.27C156.713 498.697 154.963 501.03 153.516 503.27C152.116 505.51 151.416 507.377 151.416 508.87C151.416 510.363 151.743 511.11 152.396 511.11C154.449 511.11 158.019 508.287 163.106 502.64C163.199 502.547 163.363 502.337 163.596 502.01C164.296 501.17 164.716 500.75 164.856 500.75C164.996 500.75 165.066 500.983 165.066 501.45C165.066 501.917 164.739 502.523 164.086 503.27C158.299 509.85 154.193 513.14 151.766 513.14C149.479 513.14 148.336 511.88 148.336 509.36C148.336 506.84 149.269 503.947 151.136 500.68L155.616 493.4C152.443 495.733 149.619 498.3 147.146 501.1C144.673 503.853 142.409 506.537 140.356 509.15C138.349 511.763 137.183 513.07 136.856 513.07C136.156 513.07 135.596 512.79 135.176 512.23C134.803 511.623 134.616 510.9 134.616 510.06C134.616 509.173 134.919 508.007 135.526 506.56C136.133 505.113 136.903 503.363 137.836 501.31L133.636 505.72C132.609 506.747 131.979 507.26 131.746 507.26C131.466 507.26 131.326 507.12 131.326 506.84C131.326 506.513 131.513 506.163 131.886 505.79C133.613 504.063 135.106 502.407 136.366 500.82C137.579 499.233 140.076 496.2 143.856 491.72C144.276 491.16 144.719 490.88 145.186 490.88ZM180.418 498.16C180.418 499.793 178.855 502.523 175.728 506.35C172.042 510.877 168.892 513.14 166.278 513.14H165.158C163.945 513.14 162.988 512.51 162.288 511.25C161.728 510.363 161.448 509.383 161.448 508.31C161.448 505.51 163.478 501.59 167.538 496.55C171.645 491.463 174.958 488.92 177.478 488.92C179.858 488.92 181.048 490.18 181.048 492.7C181.048 493.353 180.932 494.193 180.698 495.22C180.745 495.36 181.188 495.43 182.028 495.43C182.868 495.43 184.152 494.987 185.878 494.1C185.832 494.893 183.988 496.037 180.348 497.53C180.395 497.717 180.418 497.927 180.418 498.16ZM175.868 494.52C174.282 494.52 172.018 496.387 169.078 500.12C166.185 503.853 164.738 506.607 164.738 508.38C164.738 510.153 165.298 511.04 166.418 511.04C168.425 511.04 170.968 509.22 174.048 505.58C177.128 501.94 178.668 499.327 178.668 497.74C177.922 497.32 176.988 496.247 175.868 494.52ZM231.816 485.28L231.326 483.39C231.326 483.017 231.513 482.83 231.886 482.83C232.026 482.83 232.213 482.9 232.446 483.04C233.519 483.833 234.056 484.883 234.056 486.19C234.056 487.497 233.216 488.78 231.536 490.04C229.856 491.253 227.733 491.86 225.166 491.86C224.373 491.86 223.579 491.79 222.786 491.65C219.566 497.577 215.646 503.037 211.026 508.03C204.866 514.563 199.266 517.83 194.226 517.83C186.946 517.83 183.306 513.537 183.306 504.95C183.306 497.857 185.196 492.14 188.976 487.8C192.149 484.067 195.789 482.2 199.896 482.2C200.969 482.2 202.066 482.387 203.186 482.76C205.939 483.833 207.316 486.12 207.316 489.62C207.316 493.073 205.893 496.69 203.046 500.47C200.199 504.25 197.283 506.14 194.296 506.14C190.936 506.14 189.256 504.32 189.256 500.68C189.256 499.653 189.466 498.58 189.886 497.46C190.353 496.34 190.866 495.78 191.426 495.78C191.846 495.78 192.056 495.99 192.056 496.41C192.056 496.643 191.846 497.227 191.426 498.16C191.006 499.093 190.796 499.933 190.796 500.68C190.796 501.38 191.169 502.057 191.916 502.71C192.709 503.317 193.526 503.62 194.366 503.62C197.119 503.62 199.663 501.94 201.996 498.58C204.376 495.173 205.566 491.86 205.566 488.64C205.566 486.167 204.679 484.533 202.906 483.74C202.299 483.507 201.669 483.39 201.016 483.39C197.703 483.39 194.389 485.677 191.076 490.25C187.856 494.87 186.246 499.933 186.246 505.44C186.246 508.473 186.899 510.947 188.206 512.86C189.559 514.82 191.426 515.8 193.806 515.8C199.966 515.8 207.993 507.423 217.886 490.67C212.753 489.13 210.186 486.097 210.186 481.57C210.186 475.55 213.243 470.743 219.356 467.15C223.229 464.91 226.986 463.79 230.626 463.79C233.473 463.79 236.039 464.257 238.326 465.19C241.546 466.45 243.156 468.363 243.156 470.93C243.156 471.49 243.016 472.027 242.736 472.54C242.503 473.053 242.246 473.31 241.966 473.31C241.359 472.703 240.636 472.4 239.796 472.4C235.829 472.4 230.393 478.303 223.486 490.11C223.859 490.157 224.256 490.18 224.676 490.18C226.263 490.18 227.849 489.713 229.436 488.78C231.023 487.847 231.816 486.68 231.816 485.28ZM232.306 465.75C229.926 465.75 227.173 466.45 224.046 467.85C220.966 469.203 218.493 471.21 216.626 473.87C214.806 476.53 213.896 479.54 213.896 482.9C213.896 486.26 215.623 488.267 219.076 488.92C221.643 484.72 224.956 480.543 229.016 476.39C233.076 472.19 236.459 470.09 239.166 470.09C239.866 470.09 240.473 470.253 240.986 470.58C240.939 469.273 240.029 468.13 238.256 467.15C236.669 466.217 234.686 465.75 232.306 465.75ZM238.128 495.57C238.128 492.397 239.108 490.81 241.068 490.81C241.255 490.81 241.465 490.833 241.698 490.88C242.491 491.02 242.888 491.627 242.888 492.7C242.888 493.773 242.701 495.127 242.328 496.76C241.955 497.973 241.698 498.883 241.558 499.49C241.698 500.283 242.071 501.31 242.678 502.57C243.331 503.783 244.195 504.39 245.268 504.39C246.388 504.39 247.625 503.643 248.978 502.15C249.258 501.823 249.515 501.66 249.748 501.66C250.028 501.66 250.168 501.823 250.168 502.15C250.215 502.43 250.051 502.827 249.678 503.34C248.231 505.067 246.715 505.93 245.128 505.93C242.841 505.93 240.998 504.25 239.598 500.89C238.151 504.203 236.098 507.073 233.438 509.5C230.778 511.88 228.141 513.07 225.528 513.07C223.055 513.07 221.818 511.203 221.818 507.47C221.818 504.53 224.548 499.117 230.008 491.23C235.515 483.343 239.715 479.4 242.608 479.4C243.215 479.4 243.751 479.587 244.218 479.96C244.731 480.333 244.988 480.777 244.988 481.29C244.988 481.243 244.638 481.593 243.938 482.34C243.285 483.087 241.441 485.093 238.408 488.36C235.421 491.627 232.481 495.22 229.588 499.14C226.695 503.06 225.248 506.093 225.248 508.24C225.248 508.8 225.388 509.407 225.668 510.06C225.995 510.713 226.508 511.04 227.208 511.04C229.261 511.04 231.665 509.453 234.418 506.28C236.705 503.48 238.105 501.123 238.618 499.21C238.291 498.23 238.128 497.017 238.128 495.57ZM262.014 513.35C258.514 513.35 256.764 511.413 256.764 507.54C256.764 505.58 257.278 503.433 258.304 501.1C259.331 498.767 260.451 496.807 261.664 495.22C261.431 495.267 261.128 495.29 260.754 495.29C259.634 495.29 258.701 494.497 257.954 492.91L252.774 499.63C249.881 503.223 248.201 505.02 247.734 505.02C247.501 505.02 247.384 504.927 247.384 504.74C247.384 504.273 247.781 503.597 248.574 502.71C252.634 497.997 255.504 494.007 257.184 490.74C258.258 486.68 259.611 484.65 261.244 484.65C262.318 484.65 262.854 485.117 262.854 486.05C262.854 486.983 262.271 488.173 261.104 489.62L259.424 491.86C259.424 492.84 260.148 493.33 261.594 493.33C262.434 493.33 263.368 493.027 264.394 492.42L266.214 491.3C266.308 491.253 266.541 491.23 266.914 491.23C267.288 491.23 267.684 491.463 268.104 491.93C268.524 492.397 268.664 492.817 268.524 493.19L263.694 499.28C260.708 503.107 259.214 506.14 259.214 508.38C259.214 510.573 260.241 511.67 262.294 511.67C264.441 511.67 267.078 510.527 270.204 508.24C272.071 506.887 273.774 505.37 275.314 503.69C276.761 502.01 277.554 501.17 277.694 501.17C278.021 501.17 278.184 501.357 278.184 501.73C278.184 502.057 277.974 502.453 277.554 502.92L275.314 505.44C274.054 506.747 272.654 508.007 271.114 509.22C267.428 511.973 264.394 513.35 262.014 513.35ZM298.593 492.07L299.573 491.86C300.087 491.86 300.577 492.07 301.043 492.49C301.51 492.91 301.743 493.237 301.743 493.47C301.743 493.703 300.297 495.967 297.403 500.26C294.51 504.507 293.063 507.47 293.063 509.15C293.063 509.29 293.087 509.43 293.133 509.57C293.367 510.643 293.88 511.18 294.673 511.18C297.1 511.18 301.533 507.167 307.973 499.14C308.113 498.953 308.277 498.86 308.463 498.86C308.65 498.86 308.743 499.047 308.743 499.42C308.743 499.747 308.533 500.19 308.113 500.75C302.14 508.73 297.59 512.72 294.463 512.72C294.043 512.72 293.647 512.65 293.273 512.51C291.22 511.717 290.193 510.177 290.193 507.89C290.193 507.097 290.287 506.303 290.473 505.51L286.133 509.71C283.38 512.137 281.373 513.35 280.113 513.35C278.9 513.35 277.733 512.953 276.613 512.16C275.353 511.227 274.723 509.99 274.723 508.45C274.723 505.043 277.103 500.983 281.863 496.27C286.623 491.51 290.987 489.13 294.953 489.13C296.493 489.13 297.52 489.667 298.033 490.74C298.173 491.113 298.29 491.44 298.383 491.72C298.477 491.953 298.547 492.07 298.593 492.07ZM277.663 509.29C277.663 510.97 278.247 511.81 279.413 511.81C282.12 511.81 285.807 508.847 290.473 502.92L297.893 492.7C297.52 492.047 296.913 491.72 296.073 491.72C293.227 491.72 289.447 493.937 284.733 498.37C280.02 502.757 277.663 506.397 277.663 509.29ZM320.721 512.72C317.968 512.72 316.591 511.11 316.591 507.89C316.591 506.07 317.221 504.063 318.481 501.87C319.788 499.63 321.374 497.017 323.241 494.03C317.268 497.017 311.854 501.427 307.001 507.26C304.294 511.32 302.708 513.35 302.241 513.35C300.888 513.35 300.211 512.953 300.211 512.16C300.211 511.74 300.491 510.993 301.051 509.92C305.578 501.847 309.008 495.943 311.341 492.21C316.894 483.297 320.814 478.467 323.101 477.72C323.194 477.673 323.288 477.65 323.381 477.65C323.988 477.65 324.408 478.14 324.641 479.12C324.501 480.1 322.074 483.647 317.361 489.76C312.461 495.967 309.684 500.027 309.031 501.94C310.758 500.68 313.768 498.557 318.061 495.57C322.681 492.35 325.738 490.74 327.231 490.74C328.724 490.74 329.471 491.323 329.471 492.49C329.471 492.677 329.448 492.817 329.401 492.91C329.401 492.957 327.791 495.15 324.571 499.49C321.351 503.83 319.741 507.027 319.741 509.08C319.741 510.153 320.138 510.69 320.931 510.69C323.451 510.597 327.231 507.563 332.271 501.59C332.691 501.17 332.994 500.96 333.181 500.96C333.414 500.96 333.531 501.1 333.531 501.38C333.531 502.313 331.221 504.833 326.601 508.94C323.708 511.46 321.748 512.72 320.721 512.72ZM345.639 484.44C346.339 484.44 346.993 484.673 347.599 485.14C348.253 485.56 348.579 486.073 348.579 486.68C348.579 487.287 348.276 487.823 347.669 488.29C347.109 488.71 346.479 488.92 345.779 488.92C345.079 488.92 344.426 488.663 343.819 488.15C343.259 487.637 342.979 487.053 342.979 486.4C342.979 485.093 343.866 484.44 345.639 484.44ZM332.969 513.77C330.589 513.77 329.399 512.23 329.399 509.15C329.399 506.63 330.776 503.153 333.529 498.72C336.283 494.24 338.499 491.977 340.179 491.93C340.646 491.93 341.159 492.117 341.719 492.49C342.326 492.863 342.629 493.237 342.629 493.61C342.396 493.937 342.116 494.31 341.789 494.73C341.463 495.103 341.113 495.523 340.739 495.99C340.366 496.457 339.853 497.133 339.199 498.02C338.546 498.86 337.916 499.677 337.309 500.47C333.809 504.997 332.059 508.123 332.059 509.85C332.059 511.53 332.643 512.37 333.809 512.37C334.789 512.37 336.119 511.833 337.799 510.76C341.719 508.333 344.823 505.673 347.109 502.78C347.949 501.707 348.509 501.17 348.789 501.17C349.116 501.17 349.279 501.357 349.279 501.73C349.279 502.103 348.743 502.85 347.669 503.97C346.596 505.09 345.733 505.977 345.079 506.63C344.473 507.283 344.053 507.727 343.819 507.96C343.586 508.147 343.143 508.543 342.489 509.15C341.883 509.71 341.416 510.107 341.089 510.34C340.763 510.573 340.296 510.923 339.689 511.39C339.083 511.857 338.546 512.207 338.079 512.44C337.613 512.627 337.076 512.86 336.469 513.14C335.489 513.56 334.323 513.77 332.969 513.77ZM379.7 512.16C376.527 512.16 374.94 510.69 374.94 507.75C374.94 506.07 375.687 503.783 377.18 500.89C378.674 497.95 380.237 495.477 381.87 493.47C378.977 494.87 375.64 497.413 371.86 501.1C368.08 504.74 365.444 508.567 363.95 512.58C363.717 512.953 363.32 513.14 362.76 513.14C361.64 513.14 361.08 512.51 361.08 511.25C361.547 508.683 362.597 505.743 364.23 502.43C364.744 501.357 366.26 498.23 368.78 493.05C365.14 495.43 362.037 497.997 359.47 500.75C356.95 503.457 354.594 506.187 352.4 508.94C350.254 511.693 349.04 513.07 348.76 513.07C348.154 513.07 347.617 512.79 347.15 512.23C346.73 511.67 346.52 511.11 346.52 510.55C346.52 509.71 347.734 506.63 350.16 501.31L345.96 505.72C344.934 506.747 344.304 507.26 344.07 507.26C343.79 507.26 343.65 507.12 343.65 506.84C343.65 506.513 343.837 506.163 344.21 505.79C345.937 504.063 347.477 502.337 348.83 500.61C350.184 498.883 352.424 495.803 355.55 491.37C356.064 490.67 356.787 490.32 357.72 490.32C358.654 490.32 359.12 490.763 359.12 491.65C359.12 491.977 357.884 494.263 355.41 498.51C352.937 502.71 351.56 505.347 351.28 506.42C353.194 504.32 356.064 501.497 359.89 497.95C365.63 492.63 369.41 489.97 371.23 489.97C371.79 489.97 372.304 490.133 372.77 490.46C373.237 490.787 373.47 491.16 373.47 491.58C373.47 491.953 372.56 493.703 370.74 496.83C368.967 500.05 367.987 501.963 367.8 502.57C372.98 498.23 375.57 496.037 375.57 495.99C379.957 492.583 383.107 490.88 385.02 490.88C385.58 490.88 386.094 491.067 386.56 491.44C387.074 491.767 387.33 492.163 387.33 492.63C387.33 492.723 385.814 494.707 382.78 498.58C379.747 502.407 378.044 505.557 377.67 508.03C377.577 508.87 377.74 509.5 378.16 509.92C378.58 510.34 379.327 510.55 380.4 510.55C381.52 510.55 383.13 509.803 385.23 508.31C387.377 506.77 389.547 504.717 391.74 502.15C392.58 501.217 393.14 500.75 393.42 500.75C393.747 500.75 393.91 500.867 393.91 501.1C393.91 501.427 393.7 501.8 393.28 502.22C390.994 504.973 388.52 507.33 385.86 509.29C383.247 511.203 381.194 512.16 379.7 512.16ZM413.71 492.07L414.69 491.86C415.204 491.86 415.694 492.07 416.16 492.49C416.627 492.91 416.86 493.237 416.86 493.47C416.86 493.703 415.414 495.967 412.52 500.26C409.627 504.507 408.18 507.47 408.18 509.15C408.18 509.29 408.204 509.43 408.25 509.57C408.484 510.643 408.997 511.18 409.79 511.18C412.217 511.18 416.65 507.167 423.09 499.14C423.23 498.953 423.394 498.86 423.58 498.86C423.767 498.86 423.86 499.047 423.86 499.42C423.86 499.747 423.65 500.19 423.23 500.75C417.257 508.73 412.707 512.72 409.58 512.72C409.16 512.72 408.764 512.65 408.39 512.51C406.337 511.717 405.31 510.177 405.31 507.89C405.31 507.097 405.404 506.303 405.59 505.51L401.25 509.71C398.497 512.137 396.49 513.35 395.23 513.35C394.017 513.35 392.85 512.953 391.73 512.16C390.47 511.227 389.84 509.99 389.84 508.45C389.84 505.043 392.22 500.983 396.98 496.27C401.74 491.51 406.104 489.13 410.07 489.13C411.61 489.13 412.637 489.667 413.15 490.74C413.29 491.113 413.407 491.44 413.5 491.72C413.594 491.953 413.664 492.07 413.71 492.07ZM392.78 509.29C392.78 510.97 393.364 511.81 394.53 511.81C397.237 511.81 400.924 508.847 405.59 502.92L413.01 492.7C412.637 492.047 412.03 491.72 411.19 491.72C408.344 491.72 404.564 493.937 399.85 498.37C395.137 502.757 392.78 506.397 392.78 509.29ZM457.118 493.54C454.318 493.54 451.961 492.91 450.048 491.65C448.135 490.343 447.178 488.71 447.178 486.75C447.178 484.277 448.788 481.803 452.008 479.33C452.568 478.91 452.988 478.7 453.268 478.7C453.548 478.7 453.688 478.793 453.688 478.98C453.688 479.447 453.315 479.82 452.568 480.1C449.955 482.2 448.648 484.323 448.648 486.47C448.648 488.01 449.348 489.317 450.748 490.39C452.148 491.417 453.898 491.93 455.998 491.93C460.571 491.93 464.888 489.737 468.948 485.35C471.048 483.063 472.098 480.427 472.098 477.44C472.098 474.453 470.978 472.237 468.738 470.79C466.871 469.483 464.351 468.83 461.178 468.83C456.605 468.83 452.008 469.973 447.388 472.26C441.695 475.013 436.538 479.307 431.918 485.14C427.345 490.927 425.058 496.503 425.058 501.87C425.058 506.117 426.505 509.407 429.398 511.74C432.291 514.027 435.885 515.17 440.178 515.17C445.078 515.17 449.885 513.98 454.598 511.6C458.191 509.733 461.295 507.353 463.908 504.46C464.655 503.62 465.238 503.2 465.658 503.2C465.938 503.2 466.078 503.457 466.078 503.97C466.078 504.437 465.821 504.927 465.308 505.44C462.835 508.053 459.265 510.573 454.598 513C448.858 516.033 443.071 517.55 437.238 517.55C431.451 517.55 427.135 515.637 424.288 511.81C422.375 509.29 421.418 506.28 421.418 502.78C421.418 501.24 421.605 499.583 421.978 497.81C423.238 491.837 426.551 486.027 431.918 480.38C435.791 476.32 440.388 473.17 445.708 470.93C451.028 468.643 456.068 467.5 460.828 467.5C463.348 467.5 465.541 467.803 467.408 468.41C472.495 469.997 475.038 473.193 475.038 478C475.038 480.94 474.175 483.483 472.448 485.63C468.155 490.903 463.045 493.54 457.118 493.54ZM485.229 484.44C485.929 484.44 486.582 484.673 487.189 485.14C487.842 485.56 488.169 486.073 488.169 486.68C488.169 487.287 487.866 487.823 487.259 488.29C486.699 488.71 486.069 488.92 485.369 488.92C484.669 488.92 484.016 488.663 483.409 488.15C482.849 487.637 482.569 487.053 482.569 486.4C482.569 485.093 483.456 484.44 485.229 484.44ZM472.559 513.77C470.179 513.77 468.989 512.23 468.989 509.15C468.989 506.63 470.366 503.153 473.119 498.72C475.872 494.24 478.089 491.977 479.769 491.93C480.236 491.93 480.749 492.117 481.309 492.49C481.916 492.863 482.219 493.237 482.219 493.61C481.986 493.937 481.706 494.31 481.379 494.73C481.052 495.103 480.702 495.523 480.329 495.99C479.956 496.457 479.442 497.133 478.789 498.02C478.136 498.86 477.506 499.677 476.899 500.47C473.399 504.997 471.649 508.123 471.649 509.85C471.649 511.53 472.232 512.37 473.399 512.37C474.379 512.37 475.709 511.833 477.389 510.76C481.309 508.333 484.412 505.673 486.699 502.78C487.539 501.707 488.099 501.17 488.379 501.17C488.706 501.17 488.869 501.357 488.869 501.73C488.869 502.103 488.332 502.85 487.259 503.97C486.186 505.09 485.322 505.977 484.669 506.63C484.062 507.283 483.642 507.727 483.409 507.96C483.176 508.147 482.732 508.543 482.079 509.15C481.472 509.71 481.006 510.107 480.679 510.34C480.352 510.573 479.886 510.923 479.279 511.39C478.672 511.857 478.136 512.207 477.669 512.44C477.202 512.627 476.666 512.86 476.059 513.14C475.079 513.56 473.912 513.77 472.559 513.77ZM498.71 511.95C497.357 512.743 495.677 513.14 493.67 513.14C491.71 513.14 490.193 512.487 489.12 511.18C488.093 509.873 487.207 507.797 486.46 504.95C485.62 505.79 485.037 506.21 484.71 506.21C484.477 506.21 484.36 506.047 484.36 505.72C484.36 505.393 484.477 505.113 484.71 504.88C486.25 502.967 488.863 500.213 492.55 496.62L501.37 488.36C503.89 485.98 505.383 484.79 505.85 484.79C507.343 484.79 508.09 485.35 508.09 486.47C508.09 487.03 507.857 487.59 507.39 488.15C506.97 488.663 506.643 489.083 506.41 489.41C506.223 489.69 506.013 489.97 505.78 490.25C504.94 491.697 504.077 494.683 503.19 499.21C502.35 503.737 501.697 506.887 501.23 508.66C505.103 508.613 509.093 506.093 513.2 501.1C513.667 500.633 514.017 500.4 514.25 500.4C514.483 500.4 514.6 500.563 514.6 500.89C514.6 501.17 514.39 501.567 513.97 502.08C511.263 505.253 508.743 507.47 506.41 508.73C505.01 509.43 503.19 510.013 500.95 510.48L498.71 511.95ZM489.26 504.18C489.26 505.767 489.773 507.073 490.8 508.1C491.873 509.08 493.063 509.57 494.37 509.57C495.677 509.57 496.68 509.313 497.38 508.8C498.313 508.287 499.223 506.14 500.11 502.36C501.043 498.58 501.603 495.243 501.79 492.35L502.07 489.97C499.503 491.883 496.75 494.357 493.81 497.39C490.917 500.423 489.423 502.43 489.33 503.41C489.283 503.69 489.26 503.947 489.26 504.18ZM523.866 511.95C522.513 512.743 520.833 513.14 518.826 513.14C516.866 513.14 515.35 512.487 514.276 511.18C513.25 509.873 512.363 507.797 511.616 504.95C510.776 505.79 510.193 506.21 509.866 506.21C509.633 506.21 509.516 506.047 509.516 505.72C509.516 505.393 509.633 505.113 509.866 504.88C511.406 502.967 514.02 500.213 517.706 496.62L526.526 488.36C529.046 485.98 530.54 484.79 531.006 484.79C532.5 484.79 533.246 485.35 533.246 486.47C533.246 487.03 533.013 487.59 532.546 488.15C532.126 488.663 531.8 489.083 531.566 489.41C531.38 489.69 531.17 489.97 530.936 490.25C530.096 491.697 529.233 494.683 528.346 499.21C527.506 503.737 526.853 506.887 526.386 508.66C530.26 508.613 534.25 506.093 538.356 501.1C538.823 500.633 539.173 500.4 539.406 500.4C539.64 500.4 539.756 500.563 539.756 500.89C539.756 501.17 539.546 501.567 539.126 502.08C536.42 505.253 533.9 507.47 531.566 508.73C530.166 509.43 528.346 510.013 526.106 510.48L523.866 511.95ZM514.416 504.18C514.416 505.767 514.93 507.073 515.956 508.1C517.03 509.08 518.22 509.57 519.526 509.57C520.833 509.57 521.836 509.313 522.536 508.8C523.47 508.287 524.38 506.14 525.266 502.36C526.2 498.58 526.76 495.243 526.946 492.35L527.226 489.97C524.66 491.883 521.906 494.357 518.966 497.39C516.073 500.423 514.58 502.43 514.486 503.41C514.44 503.69 514.416 503.947 514.416 504.18ZM539.713 513.91C539.199 513.91 538.733 513.84 538.313 513.7C535.326 512.86 533.833 511.18 533.833 508.66C533.833 505.393 535.886 501.613 539.993 497.32C544.099 493.027 547.786 490.88 551.053 490.88C552.126 490.88 552.989 491.183 553.643 491.79C554.343 492.35 554.693 493.05 554.693 493.89C554.693 496.503 552.709 499 548.743 501.38C544.823 503.76 541.626 504.95 539.153 504.95C538.779 504.95 538.453 504.903 538.173 504.81C537.473 506.07 537.123 507.4 537.123 508.8C537.123 511.227 538.266 512.44 540.553 512.44C542.886 512.44 545.896 510.877 549.583 507.75C552.429 505.463 554.856 503.037 556.863 500.47C557.283 499.91 557.633 499.63 557.913 499.63C558.239 499.63 558.403 499.77 558.403 500.05C558.403 500.33 558.216 500.727 557.843 501.24C555.323 504.553 552.289 507.493 548.743 510.06C545.196 512.627 542.186 513.91 539.713 513.91ZM552.943 493.75C552.943 493.19 552.336 492.91 551.123 492.91C549.956 492.91 548.276 493.82 546.083 495.64C543.143 498.067 540.856 500.61 539.223 503.27C539.503 503.363 539.806 503.41 540.133 503.41C541.906 503.41 544.263 502.477 547.203 500.61C550.189 498.697 552.056 496.62 552.803 494.38C552.896 494.147 552.943 493.937 552.943 493.75Z"
          fill="black"/>

    <defs>

    </defs>
</svg>
